<?xml version="1.0" encoding="utf-8"?>
<svg version="1.0" width="1024.000000pt" height="1024.000000pt" viewBox="0 0 1024.000000 1024.000000" preserveAspectRatio="xMidYMid meet" xmlns="http://www.w3.org/2000/svg">
  <defs/>
  <g transform="matrix(0.164335, 0, 0, -0.164335, -333.578278, 1326.451172)" fill="#000000" stroke="none" style="">
    <ellipse style="fill: rgb(28, 28, 28);" transform="matrix(1, 0, 0, -1, 0, 0)" cx="5143.194" cy="-4703.208" rx="2874.021" ry="2746.298"/>
    <path d="M 5580 7941 C 6257 7817 6803 7531 7273 7055 C 7606 6718 7830 6347 7985 5875 C 8131 5432 8171 4977 8105 4507 C 8024 3935 7793 3433 7411 2998 C 7162 2715 6878 2495 6515 2304 L 6390 2238 L 6390 2624 L 6390 3010 L 6320 3010 C 6277 3010 6250 3014 6250 3021 C 6250 3038 6305 3112 6347 3151 C 6399 3201 6437 3225 6735 3400 C 7031 3574 7127 3639 7216 3727 C 7368 3879 7520 4169 7584 4431 C 7622 4590 7637 4714 7656 5028 L 7674 5316 L 7649 5360 C 7617 5419 7571 5445 7499 5444 C 7402 5443 7308 5370 7275 5270 C 7267 5245 7249 5126 7235 5005 C 7196 4668 7184 4631 7045 4420 C 6872 4158 6677 4001 6484 3969 C 6397 3955 6342 3968 6306 4010 C 6268 4056 6263 4101 6290 4184 C 6327 4299 6381 4396 6552 4653 C 6736 4930 6760 4974 6760 5045 C 6760 5179 6630 5266 6509 5213 C 6484 5202 6446 5172 6422 5144 C 6384 5100 6176 4808 5940 4468 C 5852 4342 5785 4259 5667 4130 C 5500 3947 5379 3709 5325 3453 C 5315 3410 5305 3311 5303 3233 L 5297 3090 L 5274 3096 L 5250 3102 L 5250 2526 L 5250 1950 L 5125 1950 L 5000 1950 L 4998 2523 L 4995 3095 L 4968 3098 L 4940 3101 L 4940 3193 C 4940 3349 4915 3503 4864 3657 C 4834 3749 4741 3926 4682 4006 C 4620 4088 4616 4092 4490 4225 C 4416 4304 4367 4372 4019 4880 C 3923 5020 3830 5149 3812 5167 C 3714 5266 3553 5245 3499 5126 C 3475 5074 3475 5006 3499 4955 C 3509 4932 3600 4791 3702 4640 C 3887 4364 3940 4266 3969 4143 C 4018 3940 3771 3901 3521 4073 C 3412 4147 3267 4309 3173 4460 C 3068 4629 3042 4714 3015 4970 C 2990 5214 2981 5260 2953 5313 C 2917 5378 2871 5416 2805 5435 C 2717 5461 2639 5433 2597 5362 C 2580 5334 2577 5311 2579 5227 C 2581 5087 2608 4735 2625 4618 C 2675 4279 2825 3943 3016 3741 C 3099 3653 3196 3584 3436 3445 C 3805 3229 3844 3205 3900 3150 C 3932 3120 3967 3076 3979 3052 L 4000 3010 L 3925 3010 L 3850 3010 L 3850 2630 C 3850 2421 3847 2250 3843 2250 C 3827 2250 3601 2375 3489 2446 C 2937 2795 2549 3261 2311 3859 C 2089 4414 2050 5095 2206 5690 C 2268 5929 2333 6099 2447 6322 C 2842 7096 3565 7673 4405 7884 C 4705 7959 4808 7970 5170 7965 C 5415 7962 5484 7958 5580 7941 Z" style="fill: rgb(182, 255, 27);"/>
    <path d="M4646 7587 c-12 -45 -6 -239 10 -307 35 -157 185 -304 331 -326 l43&#10;-6 0 -196 0 -195 -32 63 c-41 83 -144 188 -223 227 -92 47 -183 63 -345 63&#10;l-142 0 7 -32 c49 -241 174 -431 337 -514 55 -28 156 -54 211 -54 l37 0 0&#10;-299 c0 -337 -9 -409 -61 -512 -40 -81 -143 -188 -218 -228 -207 -110 -463&#10;-67 -618 103 -57 62 -89 124 -103 198 -6 28 -10 170 -10 317 l0 266 47 19 c56&#10;23 121 85 148 141 11 24 21 69 23 112 7 125 -26 188 -198 371 l-85 90 -119&#10;-125 c-141 -150 -168 -199 -169 -308 0 -95 28 -160 99 -224 30 -27 70 -55 90&#10;-61 l37 -12 -6 -262 c-6 -288 -13 -333 -71 -442 l-32 -61 82 -6 c157 -9 247&#10;-76 393 -292 l68 -100 129 1 c102 0 146 5 208 23 168 47 321 147 523 344 202&#10;196 284 324 314 492 7 39 13 157 13 262 l1 193 32 0 c58 0 137 21 213 57 95&#10;45 189 138 242 238 32 62 98 259 98 295 0 10 -36 11 -167 8 -182 -6 -240 -19&#10;-349 -83 -69 -40 -158 -135 -194 -207 l-30 -61 0 191 0 191 43 11 c175 47 304&#10;183 336 355 12 65 14 188 5 258 l-6 45 -37 -5 c-141 -20 -266 -78 -351 -161&#10;-31 -31 -62 -66 -68 -77 -11 -20 -11 -19 -28 5 -31 46 -130 135 -180 162 -49&#10;26 -164 61 -236 71 -31 5 -37 2 -42 -16z m843 -310 c-15 -12 -52 -44 -83 -71&#10;-43 -37 -60 -46 -68 -38 -17 17 42 75 106 107 61 31 80 32 45 2z m-667 -16&#10;c47 -30 80 -69 98 -115 14 -37 1 -28 -100 67 -86 82 -86 104 2 48z m518 -110&#10;c0 -5 -7 -11 -14 -14 -10 -4 -13 -1 -9 9 6 15 23 19 23 5z m-1500 -491 c4 -16&#10;14 -26 28 -28 27 -4 43 -31 35 -61 -4 -18 -10 -21 -27 -16 -11 4 -40 10 -63&#10;12 -65 7 -57 -20 17 -57 106 -53 121 -140 31 -171 -27 -10 -32 -15 -27 -35 5&#10;-17 2 -24 -8 -24 -8 0 -21 -3 -29 -6 -12 -4 -16 3 -19 28 -2 24 -8 34 -23 36&#10;-56 8 -65 13 -65 35 0 42 12 48 60 31 91 -31 124 13 35 48 -59 22 -95 59 -95&#10;96 0 30 38 77 70 87 13 4 20 15 20 31 0 22 4 25 27 22 20 -2 29 -10 33 -28z&#10;m770 -30 c66 -34 128 -86 154 -130 l18 -32 -43 28 c-94 59 -249 165 -249 170&#10;0 11 66 -9 120 -36z m1124 22 c-34 -27 -253 -177 -265 -181 -18 -6 6 30 50 76&#10;23 23 62 54 87 69 79 46 174 73 128 36z" style="fill: rgb(28, 28, 28);"/>
    <path d="M6274 7058 c-50 -24 -57 -96 -15 -139 36 -36 70 -37 110 -3 25 21 31&#10;33 31 65 0 70 -62 108 -126 77z" style="fill: rgb(28, 28, 28);"/>
    <path d="M6690 6730 c-91 -26 -257 -73 -370 -104 -113 -32 -222 -63 -242 -69&#10;-21 -5 -38 -13 -38 -17 0 -3 47 -50 105 -104 94 -88 104 -99 92 -116 -23 -34&#10;-728 -761 -1017 -1050 -291 -292 -347 -338 -495 -413 -98 -48 -227 -88 -312&#10;-94 -40 -3 -73 -9 -73 -13 0 -3 18 -35 40 -71 22 -35 57 -95 78 -132 l37 -69&#10;75 5 c138 9 329 92 500 218 118 86 890 867 1338 1354 l73 79 83 -90 c46 -49&#10;86 -87 88 -84 3 3 24 79 46 170 23 91 69 271 102 400 33 129 59 238 57 241 -1&#10;3 -76 -15 -167 -41z" style="fill: rgb(28, 28, 28);"/>
    <path d="M3093 6500 c-12 -5 -29 -23 -38 -40 -30 -58 13 -130 78 -130 34 0 87&#10;48 87 80 0 33 -26 75 -55 88 -30 14 -42 14 -72 2z" style="fill: rgb(28, 28, 28);"/>
    <path d="M7166 6369 c-20 -16 -26 -29 -26 -60 0 -52 13 -74 48 -87 52 -18 106&#10;17 118 76 5 26 1 36 -24 62 -36 36 -77 39 -116 9z" style="fill: rgb(28, 28, 28);"/>
    <path d="M3145 6069 c-133 -143 -168 -204 -173 -300 -6 -95 18 -159 84 -226&#10;34 -34 68 -57 102 -69 l52 -19 0 -160 c1 -206 15 -404 35 -480 54 -207 167&#10;-389 304 -489 42 -31 161 -96 175 -96 18 0 -39 119 -84 175 -59 72 -165 239&#10;-217 340 -85 165 -89 191 -85 528 1 134 5 187 14 187 25 0 110 65 137 104 38&#10;56 53 105 52 177 0 120 -34 181 -191 346 l-95 100 -110 -118z m145 -108 c4&#10;-17 15 -27 38 -33 27 -7 32 -13 32 -38 0 -33 -12 -37 -69 -20 -35 10 -71 -1&#10;-71 -21 0 -6 26 -21 58 -35 67 -30 91 -57 92 -102 0 -35 -37 -82 -65 -82 -9 0&#10;-15 -9 -15 -25 0 -21 -5 -25 -29 -25 -25 0 -30 5 -33 27 -2 22 -10 29 -36 34&#10;-45 9 -56 22 -48 54 6 22 11 26 29 20 66 -20 92 -23 109 -14 29 16 17 32 -38&#10;52 -65 24 -94 52 -94 92 0 38 34 85 61 85 15 0 19 7 19 31 0 27 3 30 27 27 19&#10;-2 29 -10 33 -27z" style="fill: rgb(28, 28, 28);"/>
    <path d="M4208 5966 c-143 -154 -171 -206 -171 -310 0 -56 5 -84 25 -127 71&#10;-156 242 -219 391 -145 106 52 177 176 164 288 -12 98 -50 157 -234 356 l-58&#10;63 -117 -125z m151 -106 c7 -23 16 -30 35 -30 23 0 26 -4 26 -34 0 -19 -4 -37&#10;-8 -40 -5 -3 -28 2 -52 10 -88 31 -97 -12 -11 -56 66 -33 91 -61 91 -100 0&#10;-29 -32 -64 -68 -75 -19 -5 -22 -12 -18 -31 6 -22 3 -24 -29 -24 -32 0 -35 2&#10;-35 30 0 26 -3 30 -29 30 -36 0 -55 22 -47 55 6 25 29 34 41 15 7 -12 102 -14&#10;109 -2 9 15 -9 29 -63 48 -29 10 -62 30 -72 43 -36 45 -17 105 41 134 14 7 26&#10;23 28 35 5 35 47 30 61 -8z" style="fill: rgb(28, 28, 28);"/>
    <path d="M6940 5963 c-91 -34 -64 -182 34 -183 34 0 96 57 96 89 0 67 -69 116&#10;-130 94z" style="fill: rgb(28, 28, 28);"/>
    <path d="M6624 5665 c-199 -46 -295 -108 -533 -344 -81 -81 -279 -280 -441&#10;-444 -162 -164 -330 -326 -373 -360 -138 -109 -293 -184 -450 -216 l-84 -17&#10;91 -131 c72 -105 96 -132 115 -132 35 -1 190 53 278 98 117 59 242 153 380&#10;285 153 147 254 272 362 446 273 441 380 535 606 535 91 -1 106 -3 159 -30 74&#10;-37 135 -96 166 -160 35 -72 40 -206 11 -292 -35 -103 -191 -354 -292 -468&#10;-50 -57 -81 -113 -100 -177 -7 -27 -6 -28 14 -23 56 17 168 94 237 164 90 92&#10;130 158 181 296 55 149 69 242 69 474 0 271 -4 255 92 321 44 30 82 58 85 63&#10;6 10 -134 75 -217 99 -86 26 -272 33 -356 13z" style="fill: rgb(28, 28, 28);"/>
    <path d="M3236 3207 c-12 -9 -17 -23 -14 -47 3 -31 7 -35 35 -38 23 -2 35 3&#10;47 20 20 29 20 34 -4 58 -23 23 -39 25 -64 7z" style="fill: rgb(28, 28, 28);"/>
    <path d="M6947 3202 c-24 -27 -21 -59 8 -78 23 -15 27 -15 50 0 32 21 33 59 3&#10;80 -29 21 -41 20 -61 -2z" style="fill: rgb(28, 28, 28);"/>
    <path d="M3497 3068 c-29 -23 -39 -65 -23 -102 17 -40 27 -47 66 -48 70 -2&#10;108 92 57 140 -26 24 -74 29 -100 10z" style="fill: rgb(28, 28, 28);"/>
    <path d="M6657 3068 c-37 -29 -42 -93 -9 -130 23 -27 83 -24 110 5 32 34 30&#10;89 -4 116 -30 24 -72 27 -97 9z" style="fill: rgb(28, 28, 28);"/>
  </g>
</svg>